<?xml version="1.0" encoding="utf-8"?>
<!-- Generator: Adobe Illustrator 21.0.0, SVG Export Plug-In . SVG Version: 6.00 Build 0)  -->
<svg version="1.1" id="Layer_1" xmlns="http://www.w3.org/2000/svg" xmlns:xlink="http://www.w3.org/1999/xlink" x="0px" y="0px"
	 viewBox="0 0 61 61" style="enable-background:new 0 0 61 61;" xml:space="preserve">
<style type="text/css">
	.st0{fill:#455A64;stroke:#424242;stroke-linecap:round;stroke-linejoin:round;stroke-miterlimit:10;}
	.st1{fill:none;stroke:#546E7A;stroke-linecap:round;stroke-linejoin:round;stroke-miterlimit:10;}
	.st2{fill:#546E7A;stroke:#424242;stroke-linecap:round;stroke-linejoin:round;stroke-miterlimit:10;}
	.st3{fill:none;stroke:#78909C;stroke-linecap:round;stroke-linejoin:round;stroke-miterlimit:10;}
	.st4{fill:none;stroke:#455A64;stroke-linecap:round;stroke-linejoin:round;stroke-miterlimit:10;}
	.st5{fill:#FFA726;stroke:#424242;stroke-linecap:round;stroke-linejoin:round;stroke-miterlimit:10;}
	.st6{fill:none;stroke:#FB8C00;stroke-linecap:round;stroke-linejoin:round;stroke-miterlimit:10;}
	.st7{fill:none;stroke:#FFCC80;stroke-linecap:round;stroke-linejoin:round;stroke-miterlimit:10;}
	.st8{fill:#CFD8DC;stroke:#424242;stroke-linecap:round;stroke-linejoin:round;stroke-miterlimit:10;}
	.st9{fill:none;stroke:#ECEFF1;stroke-linecap:round;stroke-linejoin:round;stroke-miterlimit:10;}
	.st10{fill:none;stroke:#B0BEC5;stroke-linecap:round;stroke-linejoin:round;stroke-miterlimit:10;}
	.st11{fill:none;stroke:#424242;stroke-linecap:round;stroke-linejoin:round;stroke-miterlimit:10;}
	.st12{fill:#EC407A;stroke:#424242;stroke-linecap:round;stroke-linejoin:round;stroke-miterlimit:10;}
	.st13{fill:none;stroke:#F48FB1;stroke-linecap:round;stroke-linejoin:round;stroke-miterlimit:10;}
	.st14{fill:none;stroke:#D81B60;stroke-linecap:round;stroke-linejoin:round;stroke-miterlimit:10;}
	.st15{fill:#ECEFF1;stroke:#424242;stroke-linecap:round;stroke-linejoin:round;stroke-miterlimit:10;}
	.st16{fill:#26C6DA;stroke:#424242;stroke-linecap:round;stroke-linejoin:round;stroke-miterlimit:10;}
	.st17{fill:none;stroke:#00ACC1;stroke-linecap:round;stroke-linejoin:round;stroke-miterlimit:10;}
	.st18{fill:none;stroke:#80DEEA;stroke-linecap:round;stroke-linejoin:round;stroke-miterlimit:10;}
	.st19{fill:#B0BEC5;stroke:#424242;stroke-linecap:round;stroke-linejoin:round;stroke-miterlimit:10;}
	.st20{fill:none;stroke:#CFD8DC;stroke-linecap:round;stroke-linejoin:round;stroke-miterlimit:10;}
	.st21{fill:#E0E0E0;stroke:#424242;stroke-linecap:round;stroke-linejoin:round;stroke-miterlimit:10;}
	.st22{fill:#F57F17;stroke:#424242;stroke-linecap:round;stroke-linejoin:round;stroke-miterlimit:10;}
	.st23{fill:none;stroke:#F57F17;stroke-linecap:round;stroke-linejoin:round;stroke-miterlimit:10;}
	.st24{fill:#FB8C00;stroke:#424242;stroke-miterlimit:10;}
	.st25{fill:none;stroke:#0097A7;stroke-linecap:round;stroke-linejoin:round;stroke-miterlimit:10;}
	.st26{fill:#26C6DA;stroke:#0097A7;stroke-linecap:round;stroke-linejoin:round;stroke-miterlimit:10;}
	.st27{fill:none;stroke:#90A4AE;stroke-linecap:round;stroke-linejoin:round;stroke-miterlimit:10;}
	.st28{fill:#CFD8DC;}
	.st29{fill:none;stroke:#424242;stroke-linecap:round;stroke-linejoin:round;}
	.st30{fill:none;stroke:#424242;stroke-linecap:round;stroke-linejoin:round;stroke-dasharray:4.0714,4.0714;}
	.st31{fill:#90A4AE;stroke:#424242;stroke-linecap:round;stroke-linejoin:round;stroke-miterlimit:10;}
	.st32{fill:none;stroke:#78909C;stroke-linecap:round;stroke-miterlimit:10;}
	.st33{fill:none;stroke:#455A64;stroke-linecap:round;stroke-miterlimit:10;}
	.st34{fill:#78909C;stroke:#424242;stroke-linecap:round;stroke-linejoin:round;stroke-miterlimit:10;}
	.st35{fill:none;stroke:#546E7A;stroke-linecap:round;stroke-miterlimit:10;}
	.st36{fill:none;stroke:#FFA726;stroke-linecap:round;stroke-linejoin:round;stroke-miterlimit:10;}
	.st37{fill:#4DD0E1;stroke:#424242;stroke-linecap:round;stroke-linejoin:round;stroke-miterlimit:10;}
	.st38{fill:#00ACC1;stroke:#424242;stroke-linecap:round;stroke-linejoin:round;stroke-miterlimit:10;}
	.st39{fill:#D81B60;stroke:#424242;stroke-linecap:round;stroke-linejoin:round;stroke-miterlimit:10;}
	.st40{fill:none;stroke:#C2185B;stroke-linecap:round;stroke-linejoin:round;stroke-miterlimit:10;}
	.st41{fill:#FB8C00;stroke:#424242;stroke-linecap:round;stroke-linejoin:round;stroke-miterlimit:10;}
	.st42{fill:none;stroke:#37474F;stroke-linecap:round;stroke-linejoin:round;stroke-miterlimit:10;}
	.st43{fill:#B0BEC5;stroke:#424242;stroke-miterlimit:10;}
	.st44{fill:#37474F;stroke:#424242;stroke-linecap:round;stroke-linejoin:round;stroke-miterlimit:10;}
	.st45{fill:#F5F5F5;stroke:#424242;stroke-linecap:round;stroke-linejoin:round;stroke-miterlimit:10;}
	.st46{fill:none;stroke:#FAFAFA;stroke-linecap:round;stroke-linejoin:round;stroke-miterlimit:10;}
	.st47{fill:#F06292;stroke:#424242;stroke-linecap:round;stroke-linejoin:round;stroke-miterlimit:10;}
	.st48{fill:#F48FB1;stroke:#424242;stroke-linecap:round;stroke-linejoin:round;stroke-miterlimit:10;}
</style>
<g id="Movie_Ticket">
	<g>
		<path class="st0" d="M55.5,23.2h-48c-0.6,0-1,0.4-1,1v11.8c1.9,0,3.5,1.6,3.5,3.5s-1.6,3.5-3.5,3.5v11.8c0,0.6,0.4,1,1,1h48
			c0.6,0,1-0.4,1-1V42.9c-1.9,0-3.5-1.6-3.5-3.5s1.6-3.5,3.5-3.5V24.2C56.5,23.6,56.1,23.2,55.5,23.2z"/>
		<path class="st2" d="M57.5,23.2h-48c-0.6,0-1,0.4-1,1v11.8c1.9,0,3.5,1.6,3.5,3.5s-1.6,3.5-3.5,3.5v11.8c0,0.6,0.4,1,1,1h48
			c0.6,0,1-0.4,1-1V42.9c-1.9,0-3.5-1.6-3.5-3.5s1.6-3.5,3.5-3.5V24.2C58.5,23.6,58.1,23.2,57.5,23.2z"/>
		<rect x="12" y="26.7" class="st16" width="43" height="25.5"/>
		<g>
			<line class="st28" x1="42" y1="23.2" x2="42" y2="55.7"/>
			<g>
				<line class="st29" x1="42" y1="23.2" x2="42" y2="25.2"/>
				<line class="st30" x1="42" y1="29.3" x2="42" y2="51.7"/>
				<line class="st29" x1="42" y1="53.7" x2="42" y2="55.7"/>
			</g>
		</g>
		<rect x="12" y="26.7" class="st8" width="27.5" height="25.5"/>
		<line class="st11" x1="25.8" y1="39.4" x2="25.8" y2="52.2"/>
		<line class="st2" x1="16" y1="31.2" x2="25.8" y2="31.2"/>
		<line class="st2" x1="16" y1="34.7" x2="25.8" y2="34.7"/>
		<line class="st9" x1="14" y1="28.7" x2="14" y2="50.2"/>
		<line class="st17" x1="53" y1="28.7" x2="53" y2="50.2"/>
		<line class="st11" x1="12" y1="39.4" x2="39.5" y2="39.4"/>
	</g>
	<g>
		<path class="st0" d="M45.5,6.2L1.2,24.5c-0.5,0.2-0.8,0.8-0.5,1.3l4.5,10.9c1.8-0.7,3.8,0.1,4.6,1.9c0.7,1.8-0.1,3.8-1.9,4.6
			L12.3,54c0.2,0.5,0.8,0.8,1.3,0.5L58,36.2c0.5-0.2,0.8-0.8,0.5-1.3L54,24c-1.8,0.7-3.8-0.1-4.6-1.9c-0.7-1.8,0.1-3.8,1.9-4.6
			L46.8,6.7C46.6,6.2,46,5.9,45.5,6.2z"/>
		<path class="st2" d="M47.4,5.4L3,23.8c-0.5,0.2-0.8,0.8-0.5,1.3L7,35.9c1.8-0.7,3.8,0.1,4.6,1.9s-0.1,3.8-1.9,4.6l4.5,10.9
			c0.2,0.5,0.8,0.8,1.3,0.5l44.3-18.4c0.5-0.2,0.8-0.8,0.5-1.3l-4.5-10.9c-1.8,0.7-3.8-0.1-4.6-1.9c-0.7-1.8,0.1-3.8,1.9-4.6
			L48.7,5.9C48.5,5.4,47.9,5.2,47.4,5.4z"/>
		
			<rect x="9.9" y="16.8" transform="matrix(0.9239 -0.3827 0.3827 0.9239 -8.9294 14.2774)" class="st12" width="43" height="25.5"/>
		<g>
			<line class="st28" x1="33.1" y1="11.3" x2="45.5" y2="41.3"/>
			<g>
				<line class="st29" x1="33.1" y1="11.3" x2="33.8" y2="13.2"/>
				<line class="st30" x1="35.4" y1="16.9" x2="44" y2="37.6"/>
				<line class="st29" x1="44.7" y1="39.5" x2="45.5" y2="41.3"/>
			</g>
		</g>
		
			<rect x="10.5" y="19.8" transform="matrix(0.9239 -0.3827 0.3827 0.9239 -10.6094 11.7631)" class="st8" width="27.5" height="25.5"/>
		<line class="st11" x1="24.3" y1="32.5" x2="29.1" y2="44.3"/>
		<line class="st2" x1="12.1" y1="28.7" x2="21.1" y2="24.9"/>
		<line class="st2" x1="13.4" y1="31.9" x2="22.4" y2="28.2"/>
		<line class="st9" x1="9.3" y1="27.1" x2="17.5" y2="47"/>
		<line class="st14" x1="45.3" y1="12.2" x2="53.6" y2="32.1"/>
		<line class="st11" x1="11.6" y1="37.8" x2="37" y2="27.3"/>
	</g>
</g>
</svg>
